M48
; DRILL file {KiCad 7.0.10} date Sun Jun 23 16:27:36 2024
; FORMAT={-:-/ absolute / metric / decimal}
; #@! TF.CreationDate,2024-06-23T16:27:36+09:00
; #@! TF.GenerationSoftware,Kicad,Pcbnew,7.0.10
; #@! TF.FileFunction,NonPlated,1,2,NPTH
FMAT,2
METRIC
; #@! TA.AperFunction,NonPlated,NPTH,ComponentDrill
T1C1.200
; #@! TA.AperFunction,NonPlated,NPTH,ComponentDrill
T2C1.700
; #@! TA.AperFunction,NonPlated,NPTH,ComponentDrill
T3C1.900
; #@! TA.AperFunction,NonPlated,NPTH,ComponentDrill
T4C3.000
; #@! TA.AperFunction,NonPlated,NPTH,ComponentDrill
T5C4.000
%
G90
G05
T1
X136.398Y-26.017
X136.398Y-26.017
X136.398Y-33.02
X136.398Y-33.02
T2
X29.26Y-42.225
X29.26Y-58.725
X29.26Y-75.225
X39.42Y-42.225
X39.42Y-58.725
X39.42Y-75.225
X45.76Y-33.975
X45.76Y-50.475
X45.76Y-66.975
X55.92Y-33.975
X55.92Y-50.475
X55.92Y-66.975
X62.26Y-33.975
X62.26Y-50.475
X62.26Y-66.975
X62.26Y-83.475
X72.42Y-33.975
X72.42Y-50.475
X72.42Y-66.975
X72.42Y-83.475
X78.76Y-33.975
X78.76Y-50.475
X78.76Y-66.975
X78.76Y-83.475
X88.92Y-33.975
X88.92Y-50.475
X88.92Y-66.975
X88.92Y-83.475
X95.26Y-33.975
X95.26Y-50.475
X95.26Y-66.975
X95.26Y-83.475
X105.42Y-33.975
X105.42Y-50.475
X105.42Y-66.975
X105.42Y-83.475
X111.76Y-38.1
X111.76Y-54.61
X111.76Y-71.1
X111.76Y-87.6
X121.92Y-38.1
X121.92Y-54.61
X121.92Y-71.1
X121.92Y-87.6
X128.26Y-91.725
X138.42Y-91.725
T3
X28.84Y-42.225
X28.84Y-58.725
X28.84Y-75.225
X39.84Y-42.225
X39.84Y-58.725
X39.84Y-75.225
X45.34Y-33.975
X45.34Y-50.475
X45.34Y-66.975
X56.34Y-33.975
X56.34Y-50.475
X56.34Y-66.975
X61.84Y-33.975
X61.84Y-50.475
X61.84Y-66.975
X61.84Y-83.475
X72.84Y-33.975
X72.84Y-50.475
X72.84Y-66.975
X72.84Y-83.475
X78.34Y-33.975
X78.34Y-50.475
X78.34Y-66.975
X78.34Y-83.475
X89.34Y-33.975
X89.34Y-50.475
X89.34Y-66.975
X89.34Y-83.475
X94.84Y-33.975
X94.84Y-50.475
X94.84Y-66.975
X94.84Y-83.475
X105.84Y-33.975
X105.84Y-50.475
X105.84Y-66.975
X105.84Y-83.475
X111.34Y-38.1
X111.34Y-54.61
X111.34Y-71.1
X111.34Y-87.6
X122.34Y-38.1
X122.34Y-54.61
X122.34Y-71.1
X122.34Y-87.6
X127.84Y-91.725
X138.84Y-91.725
T4
X30.53Y-39.685
X30.53Y-56.185
X30.53Y-72.685
X31.8Y-37.145
X31.8Y-53.645
X31.8Y-70.145
X36.88Y-37.145
X36.88Y-53.645
X36.88Y-70.145
X38.15Y-39.685
X38.15Y-56.185
X38.15Y-72.685
X47.03Y-31.435
X47.03Y-47.935
X47.03Y-64.435
X48.3Y-28.895
X48.3Y-45.395
X48.3Y-61.895
X53.38Y-28.895
X53.38Y-45.395
X53.38Y-61.895
X54.65Y-31.435
X54.65Y-47.935
X54.65Y-64.435
X63.53Y-31.435
X63.53Y-47.935
X63.53Y-64.435
X63.53Y-80.935
X64.8Y-28.895
X64.8Y-45.395
X64.8Y-61.895
X64.8Y-78.395
X69.88Y-28.895
X69.88Y-45.395
X69.88Y-61.895
X69.88Y-78.395
X71.15Y-31.435
X71.15Y-47.935
X71.15Y-64.435
X71.15Y-80.935
X80.03Y-31.435
X80.03Y-47.935
X80.03Y-64.435
X80.03Y-80.935
X81.3Y-28.895
X81.3Y-45.395
X81.3Y-61.895
X81.3Y-78.395
X86.38Y-28.895
X86.38Y-45.395
X86.38Y-61.895
X86.38Y-78.395
X87.65Y-31.435
X87.65Y-47.935
X87.65Y-64.435
X87.65Y-80.935
X96.53Y-31.435
X96.53Y-47.935
X96.53Y-64.435
X96.53Y-80.935
X97.8Y-28.895
X97.8Y-45.395
X97.8Y-61.895
X97.8Y-78.395
X102.88Y-28.895
X102.88Y-45.395
X102.88Y-61.895
X102.88Y-78.395
X104.15Y-31.435
X104.15Y-47.935
X104.15Y-64.435
X104.15Y-80.935
X113.03Y-35.56
X113.03Y-52.07
X113.03Y-68.56
X113.03Y-85.06
X114.3Y-33.02
X114.3Y-49.53
X114.3Y-66.02
X114.3Y-82.52
X119.38Y-33.02
X119.38Y-49.53
X119.38Y-66.02
X119.38Y-82.52
X120.65Y-35.56
X120.65Y-52.07
X120.65Y-68.56
X120.65Y-85.06
X129.53Y-89.185
X130.8Y-86.645
X135.88Y-86.645
X137.15Y-89.185
T5
X34.34Y-42.225
X34.34Y-58.725
X34.34Y-75.225
X50.84Y-33.975
X50.84Y-50.475
X50.84Y-66.975
X67.34Y-33.975
X67.34Y-50.475
X67.34Y-66.975
X67.34Y-83.475
X83.84Y-33.975
X83.84Y-50.475
X83.84Y-66.975
X83.84Y-83.475
X100.34Y-33.975
X100.34Y-50.475
X100.34Y-66.975
X100.34Y-83.475
X116.84Y-38.1
X116.84Y-54.61
X116.84Y-71.1
X116.84Y-87.6
X133.34Y-91.725
M30
