G04 #@! TF.GenerationSoftware,KiCad,Pcbnew,7.0.10*
G04 #@! TF.CreationDate,2024-06-23T16:27:35+09:00*
G04 #@! TF.ProjectId,sss,7373732e-6b69-4636-9164-5f7063625858,rev?*
G04 #@! TF.SameCoordinates,Original*
G04 #@! TF.FileFunction,Paste,Bot*
G04 #@! TF.FilePolarity,Positive*
%FSLAX46Y46*%
G04 Gerber Fmt 4.6, Leading zero omitted, Abs format (unit mm)*
G04 Created by KiCad (PCBNEW 7.0.10) date 2024-06-23 16:27:35*
%MOMM*%
%LPD*%
G01*
G04 APERTURE LIST*
G04 Aperture macros list*
%AMRoundRect*
0 Rectangle with rounded corners*
0 $1 Rounding radius*
0 $2 $3 $4 $5 $6 $7 $8 $9 X,Y pos of 4 corners*
0 Add a 4 corners polygon primitive as box body*
4,1,4,$2,$3,$4,$5,$6,$7,$8,$9,$2,$3,0*
0 Add four circle primitives for the rounded corners*
1,1,$1+$1,$2,$3*
1,1,$1+$1,$4,$5*
1,1,$1+$1,$6,$7*
1,1,$1+$1,$8,$9*
0 Add four rect primitives between the rounded corners*
20,1,$1+$1,$2,$3,$4,$5,0*
20,1,$1+$1,$4,$5,$6,$7,0*
20,1,$1+$1,$6,$7,$8,$9,0*
20,1,$1+$1,$8,$9,$2,$3,0*%
G04 Aperture macros list end*
%ADD10R,2.000000X2.000000*%
%ADD11RoundRect,0.250001X-0.624999X0.462499X-0.624999X-0.462499X0.624999X-0.462499X0.624999X0.462499X0*%
%ADD12RoundRect,0.250001X0.462499X0.624999X-0.462499X0.624999X-0.462499X-0.624999X0.462499X-0.624999X0*%
%ADD13RoundRect,0.250001X0.624999X-0.462499X0.624999X0.462499X-0.624999X0.462499X-0.624999X-0.462499X0*%
G04 APERTURE END LIST*
D10*
X126440000Y-89185000D03*
X138940000Y-86645000D03*
X43940000Y-64435000D03*
X56440000Y-61895000D03*
X109940000Y-52070000D03*
X122440000Y-49530000D03*
X60440000Y-31435000D03*
X72940000Y-28895000D03*
X76940000Y-31435000D03*
X89440000Y-28895000D03*
X60440000Y-64435000D03*
X72940000Y-61895000D03*
X109940000Y-85060000D03*
X122440000Y-82520000D03*
X60440000Y-47935000D03*
X72940000Y-45395000D03*
X93440000Y-64435000D03*
X105940000Y-61895000D03*
X109940000Y-68560000D03*
X122440000Y-66020000D03*
X109940000Y-35560000D03*
X122440000Y-33020000D03*
X43940000Y-47935000D03*
X56440000Y-45395000D03*
X27440000Y-56185000D03*
X39940000Y-53645000D03*
X93440000Y-47935000D03*
X105940000Y-45395000D03*
X93440000Y-80935000D03*
X105940000Y-78395000D03*
X76940000Y-80935000D03*
X89440000Y-78395000D03*
X43940000Y-31435000D03*
X56440000Y-28895000D03*
X93440000Y-31435000D03*
X105940000Y-28895000D03*
X27440000Y-72685000D03*
X39940000Y-70145000D03*
X27440000Y-39685000D03*
X39940000Y-37145000D03*
X76940000Y-64435000D03*
X89440000Y-61895000D03*
X76940000Y-47935000D03*
X89440000Y-45395000D03*
X60440000Y-80935000D03*
X72940000Y-78395000D03*
D11*
X91948000Y-36757000D03*
X91948000Y-33782000D03*
X75438000Y-86287000D03*
X75438000Y-83312000D03*
X125476000Y-62919000D03*
X125476000Y-59944000D03*
X91948000Y-69777000D03*
X91948000Y-66802000D03*
X58928000Y-36791000D03*
X58928000Y-33816000D03*
X42418000Y-45139000D03*
X42418000Y-42164000D03*
X75438000Y-36791000D03*
X75438000Y-33816000D03*
D12*
X120469000Y-46482000D03*
X123444000Y-46482000D03*
D11*
X91948000Y-86287000D03*
X91948000Y-83312000D03*
X75438000Y-69777000D03*
X75438000Y-66802000D03*
X59080400Y-53267000D03*
X59080400Y-50292000D03*
D12*
X122213000Y-95758000D03*
X125188000Y-95758000D03*
D11*
X75438000Y-53521000D03*
X75438000Y-50546000D03*
D12*
X122213000Y-98298000D03*
X125188000Y-98298000D03*
D11*
X108712000Y-41075000D03*
X108712000Y-38100000D03*
X42418000Y-61649000D03*
X42418000Y-58674000D03*
X108458000Y-90639000D03*
X108458000Y-87664000D03*
X42418000Y-77651000D03*
X42418000Y-74676000D03*
X91948000Y-53267000D03*
X91948000Y-50292000D03*
X58928000Y-69777000D03*
X58928000Y-66802000D03*
D13*
X135636000Y-82058800D03*
X135636000Y-79083800D03*
D11*
X108458000Y-57619000D03*
X108458000Y-54644000D03*
D12*
X120689000Y-79248000D03*
X123664000Y-79248000D03*
D11*
X108458000Y-73875000D03*
X108458000Y-70900000D03*
M02*
