M48
; DRILL file {KiCad 7.0.10} date Sun Jun 23 16:27:36 2024
; FORMAT={-:-/ absolute / metric / decimal}
; #@! TF.CreationDate,2024-06-23T16:27:36+09:00
; #@! TF.GenerationSoftware,Kicad,Pcbnew,7.0.10
; #@! TF.FileFunction,Plated,1,2,PTH
FMAT,2
METRIC
; #@! TA.AperFunction,Plated,PTH,ViaDrill
T1C0.300
; #@! TA.AperFunction,Plated,PTH,ComponentDrill
T2C0.500
; #@! TA.AperFunction,Plated,PTH,ComponentDrill
T3C0.600
; #@! TA.AperFunction,Plated,PTH,ComponentDrill
T4C1.000
%
G90
G05
T1
X26.67Y-41.656
X26.67Y-58.064
X26.67Y-70.866
X26.67Y-74.549
X26.772Y-37.516
X26.924Y-54.0
X27.483Y-38.964
X27.483Y-55.474
X27.483Y-71.933
X28.626Y-68.021
X28.651Y-44.069
X28.829Y-51.384
X28.854Y-60.63
X31.42Y-78.054
X40.31Y-60.808
X40.742Y-43.764
X41.199Y-76.124
X41.834Y-55.575
X41.859Y-39.065
X41.859Y-72.06
X42.418Y-41.758
X42.418Y-58.268
X42.418Y-74.27
X42.774Y-54.254
X42.926Y-37.694
X42.926Y-44.755
X42.926Y-61.265
X42.977Y-77.267
X43.053Y-29.286
X43.993Y-30.632
X43.993Y-47.244
X43.993Y-63.703
X44.171Y-74.574
X44.348Y-77.318
X44.78Y-79.705
X45.085Y-40.894
X45.288Y-57.15
X45.847Y-59.893
X45.923Y-43.383
X46.584Y-68.351
X46.584Y-71.78
X49.53Y-36.398
X50.8Y-70.917
X51.308Y-54.534
X51.384Y-38.075
X53.442Y-75.336
X57.404Y-35.458
X57.607Y-68.326
X58.344Y-47.32
X58.344Y-63.83
X58.369Y-30.886
X58.369Y-36.83
X58.369Y-69.774
X58.522Y-53.264
X58.674Y-79.477
X58.928Y-33.401
X58.953Y-62.357
X58.953Y-66.396
X59.08Y-29.54
X59.08Y-49.886
X59.334Y-38.506
X59.334Y-54.94
X59.334Y-82.982
X59.817Y-77.394
X60.503Y-30.785
X60.503Y-47.244
X60.503Y-63.754
X60.96Y-78.435
X61.697Y-37.998
X61.824Y-54.508
X61.824Y-59.792
X62.306Y-70.866
X63.043Y-84.938
X63.119Y-68.428
X64.059Y-35.56
X64.948Y-86.97
X65.075Y-89.027
X65.456Y-70.917
X66.751Y-75.336
X67.31Y-77.368
X69.393Y-74.828
X73.736Y-84.988
X74.092Y-35.357
X74.168Y-68.351
X74.828Y-30.836
X74.828Y-47.346
X74.854Y-63.83
X74.854Y-80.315
X74.879Y-36.83
X74.879Y-53.264
X74.879Y-69.774
X75.438Y-33.401
X75.438Y-50.14
X75.438Y-66.396
X75.438Y-82.906
X75.641Y-29.54
X75.743Y-38.659
X75.768Y-55.245
X75.997Y-62.281
X75.997Y-86.309
X76.962Y-30.734
X76.987Y-47.244
X76.987Y-63.754
X77.419Y-79.248
X78.181Y-37.998
X78.207Y-54.61
X78.232Y-35.662
X78.308Y-59.69
X78.638Y-70.993
X78.765Y-89.129
X79.654Y-68.402
X79.832Y-85.115
X81.966Y-70.815
X83.058Y-75.286
X83.896Y-77.267
X83.947Y-72.771
X90.272Y-85.014
X90.475Y-35.433
X90.5Y-68.402
X90.627Y-51.816
X91.338Y-63.805
X91.364Y-47.32
X91.364Y-80.34
X91.389Y-30.836
X91.389Y-36.779
X91.389Y-53.518
X91.389Y-69.774
X91.948Y-33.376
X91.948Y-49.886
X91.948Y-66.421
X91.948Y-82.906
X92.024Y-29.312
X92.024Y-89.002
X92.1Y-38.71
X92.253Y-62.509
X92.278Y-55.016
X92.507Y-45.999
X92.507Y-86.284
X93.472Y-30.734
X93.472Y-47.219
X93.497Y-63.729
X93.574Y-72.949
X94.031Y-79.146
X94.539Y-40.843
X94.615Y-52.222
X94.666Y-54.407
X94.818Y-87.427
X94.844Y-59.334
X95.936Y-68.301
X96.368Y-85.014
X96.901Y-39.853
X97.079Y-72.771
X98.247Y-87.3
X99.847Y-75.336
X99.873Y-72.288
X100.254Y-77.114
X100.406Y-60.808
X102.794Y-85.115
X103.276Y-54.305
X104.851Y-88.544
X104.953Y-88.494
X105.969Y-74.879
X106.426Y-86.665
X106.528Y-90.602
X106.578Y-35.814
X106.629Y-53.924
X107.137Y-39.573
X107.264Y-68.707
X107.747Y-30.785
X107.823Y-47.346
X107.823Y-63.83
X107.874Y-80.315
X108.026Y-57.226
X108.153Y-41.097
X108.204Y-37.694
X108.458Y-54.229
X108.458Y-56.109
X108.458Y-70.485
X108.458Y-74.32
X108.458Y-87.274
X109.017Y-33.325
X109.017Y-90.678
X109.423Y-49.378
X109.982Y-34.874
X109.982Y-51.41
X110.388Y-72.72
X110.541Y-66.726
X110.592Y-83.16
X110.973Y-44.78
X111.023Y-39.802
X111.303Y-80.594
X112.319Y-63.551
X112.649Y-56.109
X113.055Y-88.748
X114.452Y-74.955
X114.808Y-61.824
X114.833Y-45.187
X116.484Y-59.919
X116.815Y-81.737
X116.84Y-65.532
X117.221Y-47.473
X118.11Y-93.396
X118.897Y-79.604
X119.685Y-55.855
X120.04Y-46.482
X120.117Y-77.445
X120.244Y-79.248
X121.183Y-93.37
X121.361Y-89.154
X121.818Y-95.25
X121.895Y-44.831
X123.546Y-59.893
X123.647Y-62.001
X123.698Y-34.849
X123.698Y-45.923
X123.698Y-51.384
X123.698Y-67.894
X123.698Y-78.664
X123.698Y-84.353
X124.663Y-89.154
X124.765Y-33.503
X124.765Y-95.25
X124.79Y-90.805
X124.866Y-50.165
X124.892Y-37.617
X124.917Y-62.941
X124.968Y-59.538
X125.07Y-57.912
X125.247Y-85.039
X125.578Y-98.298
X125.959Y-85.928
X126.746Y-94.513
X126.771Y-71.882
X126.771Y-97.13
X126.797Y-99.162
X127.0Y-87.376
X127.229Y-60.046
X127.889Y-84.785
X127.914Y-76.276
X127.965Y-80.289
X128.448Y-64.795
X128.524Y-73.508
X128.575Y-69.977
X130.073Y-57.887
X131.267Y-79.604
X132.639Y-85.522
X132.664Y-41.758
X132.74Y-50.114
X132.817Y-65.634
X132.918Y-29.388
X133.629Y-97.13
X133.731Y-87.046
X134.341Y-32.842
X134.595Y-83.541
X134.823Y-44.501
X134.849Y-60.63
X135.128Y-40.386
X135.128Y-98.476
X136.144Y-79.502
X136.423Y-29.286
X136.652Y-84.582
X136.957Y-91.338
X137.414Y-43.434
X137.668Y-40.386
X137.668Y-93.142
X137.77Y-78.994
X137.82Y-60.579
X139.37Y-39.776
X139.7Y-52.476
X139.954Y-32.258
X140.208Y-88.341
X140.335Y-93.396
X140.386Y-27.076
X140.843Y-87.097
X140.945Y-91.034
T2
X134.62Y-42.164
X136.144Y-42.164
X137.668Y-42.164
T4
X133.096Y-79.497
X133.096Y-82.037
X135.54Y-46.19
X135.54Y-48.73
X135.54Y-51.27
X135.54Y-53.81
X135.54Y-56.35
X135.54Y-58.89
X138.08Y-46.19
X138.08Y-48.73
X138.08Y-51.27
X138.08Y-53.81
X138.08Y-56.35
X138.08Y-58.89
T3
X134.097Y-36.652G85X134.097Y-36.052
G05
X134.298Y-28.145G85X134.298Y-27.545
G05
X134.298Y-31.145G85X134.298Y-30.545
G05
X134.298Y-34.545G85X134.298Y-35.145
G05
X138.497Y-27.552G85X138.497Y-28.152
G05
X138.497Y-30.552G85X138.497Y-31.152
G05
X138.497Y-35.152G85X138.497Y-34.552
G05
X138.698Y-36.045G85X138.698Y-36.645
G05
M30
